<svg width="434" height="298" viewBox="0 0 434 298" fill="none" xmlns="http://www.w3.org/2000/svg">
<path fill-rule="evenodd" clip-rule="evenodd" d="M293.057 14.0387C282.724 3.99868 268.353 -0.767824 254.053 1.10223C240.128 3.05757 227.759 10.9939 220.197 22.8233C215.881 29.4563 213.251 37.0402 212.536 44.9169L214.448 43.0062C196.753 41.4794 178.95 44.2566 162.566 51.0998C148.807 57.6618 139.087 70.4692 136.487 85.463C135.131 93.4208 136.823 101.596 141.227 108.368L142.5 105.249C120.897 110.72 102.955 125.688 93.7327 145.933C89.6021 156.204 88.8784 167.525 91.6678 178.236C94.3903 188.076 100.703 196.544 109.366 201.976C118.599 208.046 130.068 209.682 140.636 206.434L137.706 204.776C144.03 223.443 160.202 237.076 179.704 240.178C201.703 244.534 224.529 241.493 244.612 231.532C256.622 225.896 267.53 218.17 276.824 208.717L275.083 209.438C287.301 210.191 299.553 208.683 311.221 204.992C322.013 201.779 332.253 196.949 341.591 190.667C350.236 184.986 357.479 177.424 362.777 168.55C367.588 160.192 369.703 150.558 368.833 140.958C368.132 130.328 362.893 120.508 354.445 113.992V118.36C366.324 109.318 372.878 94.9433 371.905 80.0672C370.765 68.6266 365.09 58.115 356.143 50.8706C347.195 43.6261 335.718 40.2496 324.263 41.492L326.053 45.8062C334.119 38.0914 336.322 26.0874 331.519 16.0216C326.475 6.2328 315.403 1.12296 304.661 3.62584C298.742 4.7938 293.463 8.10182 289.837 12.9151C289.178 14.06 289.562 15.5207 290.699 16.1958C291.849 16.8306 293.295 16.4523 293.985 15.3366C299.631 8.73273 308.776 6.29199 316.972 9.20182C325.246 12.4231 330.181 20.9339 328.855 29.6971C328.371 34.524 326.094 38.9952 322.472 42.2311C321.771 42.9618 321.57 44.0364 321.957 44.9707C322.345 45.905 323.249 46.5226 324.262 46.5453C337.545 45.0403 350.685 50.3645 359.156 60.6835C367.231 70.9512 369.294 84.7025 364.584 96.8793C362.171 103.727 357.747 109.69 351.887 113.992C351.218 114.395 350.77 115.081 350.67 115.854C350.57 116.628 350.83 117.404 351.375 117.963C365.396 130.398 368.216 151.186 358.01 166.891C352.645 175.518 345.335 182.777 336.664 188.09C327.131 194.147 316.713 198.69 305.783 201.555C299.876 203.166 293.826 204.198 287.718 204.637C284.756 204.83 281.782 204.812 278.817 204.716C277.365 204.485 275.889 204.449 274.427 204.607C273.145 205.284 272.034 206.242 271.175 207.407C263.481 214.842 254.712 221.083 245.161 225.92C226.985 235.585 206.238 239.345 185.817 236.675C168.261 235.055 152.674 224.799 144.267 209.336C143.446 207.453 142.787 205.503 142.298 203.508C141.938 202.25 140.634 201.512 139.368 201.849C121.613 206.816 103.034 197.224 96.8411 179.894C93.5627 170.26 93.5733 159.815 96.8713 150.188C100.139 140.582 105.958 132.041 113.707 125.474C122.441 118.068 132.635 112.574 143.631 109.347C144.264 109.164 144.779 108.702 145.027 108.093C145.275 107.484 145.23 106.794 144.904 106.223C138.134 94.5555 139.128 79.9577 147.418 69.3118C156.879 57.1815 170.981 49.5361 186.328 48.2156C195.645 46.9433 205.054 46.4769 214.45 46.8217C215.496 46.8 216.339 45.9604 216.363 44.9169C217.669 32.0675 224.373 20.3727 234.811 12.7349C245.444 5.18066 258.837 2.59452 271.527 5.64473C278.903 7.30344 285.784 10.6732 291.611 15.4808C292.016 15.8401 292.631 15.822 293.015 15.4396C293.398 15.0572 293.416 14.443 293.056 14.0387H293.057Z" fill="#E7C4B2"/>
<g filter="url(#filter0_d_113_1434)">
<rect x="80" y="49.584" width="274" height="175.572" rx="6" fill="white"/>
</g>
<g filter="url(#filter1_d_113_1434)">
<rect x="64" y="41.6035" width="306" height="175.572" rx="6" fill="white"/>
</g>
<g filter="url(#filter2_d_113_1434)">
<rect x="48" y="33.6228" width="338" height="175.572" rx="6" fill="white"/>
</g>
<ellipse cx="92" cy="77.5158" rx="20" ry="19.9513" fill="#F7CC47"/>
<rect x="72" y="111.433" width="75" height="13.9659" rx="2" fill="#F5DED1"/>
<rect x="72" y="133.379" width="126" height="5.9854" rx="2.9927" fill="#F5DED1"/>
<path fill-rule="evenodd" clip-rule="evenodd" d="M289.5 110.106C282.456 111.33 275.32 111.951 268.169 111.963V111.962C267.428 111.974 267.211 113.176 267.989 113.292C276.225 114.4 284.593 114.056 292.709 112.276C307.131 109.297 320.693 103.12 332.388 94.2041C338.279 89.7476 343.639 84.6337 348.362 78.9625C350.869 75.8931 353.184 72.6771 355.295 69.3329L355.311 69.2551C355.728 67.1821 356.151 65.1121 356.588 63.0446C356.873 63.0053 357.158 62.9687 357.444 62.9346C358.916 62.764 359.002 60.5452 357.444 60.5783C357.334 60.5801 357.224 60.5824 357.114 60.5852C357.213 60.1259 357.313 59.6666 357.415 59.2075L360.292 60.4146C358.783 63.4746 357.115 66.4514 355.295 69.3329L354.361 74.0089C354.504 73.7673 354.766 73.6127 355.057 73.6127C355.413 73.6127 355.727 73.8442 355.831 74.183C356.125 75.3637 356.29 76.5361 356.458 77.7224C356.514 78.122 356.571 78.5231 356.633 78.9266L353.41 79.3622C353.436 80.0619 353.912 80.6909 354.621 80.8857C355.476 81.1203 356.364 80.6408 356.633 79.7996C357.112 78.1541 357.463 76.4745 357.685 74.7755L358.622 69.9418C359.265 66.6476 359.874 63.3466 360.451 60.0388C360.642 59.2832 360.256 58.5009 359.539 58.1899C358.815 57.8803 357.973 58.1552 357.574 58.8313C357.301 59.4235 357.02 60.0123 356.733 60.5974C354.657 60.6754 352.593 60.9497 350.568 61.4168C349.401 61.7004 348.254 62.0633 347.136 62.5031C346.146 62.7537 345.251 63.2852 344.557 64.0331C344.399 64.3048 344.376 64.634 344.495 64.9249C344.614 65.2157 344.861 65.4353 345.164 65.5195C346.148 65.5593 347.128 65.3694 348.026 64.9649C348.965 64.6782 349.918 64.4342 350.871 64.1898C350.951 64.1695 351.03 64.1492 351.109 64.1289C352.519 63.7629 353.945 63.4618 355.382 63.2264C352.346 68.8808 348.652 74.1659 344.371 78.9711C334.891 89.72 323.132 98.2386 309.943 103.912C303.383 106.73 296.525 108.808 289.5 110.106ZM353.896 76.0436C354.016 75.4561 354.152 74.8716 354.304 74.291L354.361 74.0089C354.329 74.0628 354.303 74.1211 354.284 74.183C354.126 74.8043 354.003 75.4235 353.896 76.0436ZM353.896 76.0436C353.672 77.1411 353.503 78.2496 353.392 79.3647L353.41 79.3622C353.405 79.2189 353.419 79.0727 353.453 78.9266C353.515 78.5349 353.572 78.1453 353.63 77.7573C353.714 77.1836 353.798 76.6132 353.896 76.0436Z" fill="#EF6D58"/>
<rect x="72" y="177.272" width="289" height="5.9854" rx="2.9927" fill="#F4E4FF"/>
<rect x="72" y="177.272" width="113" height="5.9854" rx="2.9927" fill="#B550F8"/>
<defs>
<filter id="filter0_d_113_1434" x="32" y="25.584" width="370" height="271.572" filterUnits="userSpaceOnUse" color-interpolation-filters="sRGB">
<feFlood flood-opacity="0" result="BackgroundImageFix"/>
<feColorMatrix in="SourceAlpha" type="matrix" values="0 0 0 0 0 0 0 0 0 0 0 0 0 0 0 0 0 0 127 0" result="hardAlpha"/>
<feOffset dy="24"/>
<feGaussianBlur stdDeviation="24"/>
<feColorMatrix type="matrix" values="0 0 0 0 0.333333 0 0 0 0 0.117647 0 0 0 0 0 0 0 0 0.04 0"/>
<feBlend mode="normal" in2="BackgroundImageFix" result="effect1_dropShadow_113_1434"/>
<feBlend mode="normal" in="SourceGraphic" in2="effect1_dropShadow_113_1434" result="shape"/>
</filter>
<filter id="filter1_d_113_1434" x="16" y="17.6035" width="402" height="271.572" filterUnits="userSpaceOnUse" color-interpolation-filters="sRGB">
<feFlood flood-opacity="0" result="BackgroundImageFix"/>
<feColorMatrix in="SourceAlpha" type="matrix" values="0 0 0 0 0 0 0 0 0 0 0 0 0 0 0 0 0 0 127 0" result="hardAlpha"/>
<feOffset dy="24"/>
<feGaussianBlur stdDeviation="24"/>
<feColorMatrix type="matrix" values="0 0 0 0 0.333333 0 0 0 0 0.117647 0 0 0 0 0 0 0 0 0.04 0"/>
<feBlend mode="normal" in2="BackgroundImageFix" result="effect1_dropShadow_113_1434"/>
<feBlend mode="normal" in="SourceGraphic" in2="effect1_dropShadow_113_1434" result="shape"/>
</filter>
<filter id="filter2_d_113_1434" x="0" y="9.6228" width="434" height="271.572" filterUnits="userSpaceOnUse" color-interpolation-filters="sRGB">
<feFlood flood-opacity="0" result="BackgroundImageFix"/>
<feColorMatrix in="SourceAlpha" type="matrix" values="0 0 0 0 0 0 0 0 0 0 0 0 0 0 0 0 0 0 127 0" result="hardAlpha"/>
<feOffset dy="24"/>
<feGaussianBlur stdDeviation="24"/>
<feColorMatrix type="matrix" values="0 0 0 0 0.333333 0 0 0 0 0.117647 0 0 0 0 0 0 0 0 0.04 0"/>
<feBlend mode="normal" in2="BackgroundImageFix" result="effect1_dropShadow_113_1434"/>
<feBlend mode="normal" in="SourceGraphic" in2="effect1_dropShadow_113_1434" result="shape"/>
</filter>
</defs>
</svg>
