<svg width="24" height="18" viewBox="0 0 24 18" fill="none" xmlns="http://www.w3.org/2000/svg">
<path fill-rule="evenodd" clip-rule="evenodd" d="M3 6.87769e-09C1.60024 -9.42103e-05 0.386447 0.967828 0.075 2.3325L12 9.621L23.925 2.3325C23.6136 0.967828 22.3998 -9.42103e-05 21 6.87769e-09H3ZM0 14.7019V4.0459L8.7045 9.3649L0 14.7019ZM10.1415 10.2447L0.286499 16.2852C0.783509 17.3332 1.84012 18.0008 3 17.9997H21C22.1597 17.9999 23.2157 17.3318 23.712 16.2837L13.857 10.2432L12 11.3787L10.1415 10.2432V10.2447ZM24 14.7019L15.2955 9.3664V9.3649L24 4.0459V14.7019Z" fill="white"/>
</svg>
