<svg width="16" height="16" viewBox="0 0 16 16" xmlns="http://www.w3.org/2000/svg">
<path fill-rule="evenodd" clip-rule="evenodd" d="M8 0C5.82667 0 5.556 0.00933333 4.70133 0.0493333C1.79467 0.182667 0.181333 1.79467 0.048 4.70133C0.00933333 5.556 0 5.828 0 8C0 10.1733 0.00933333 10.4453 0.048 11.2987C0.181333 14.204 1.79467 15.8187 4.70133 15.952C5.556 15.9907 5.82667 16 8 16C10.1733 16 10.4453 15.9907 11.3 15.952C14.2013 15.8187 15.8213 14.2067 15.952 11.2987C15.9907 10.4453 16 10.1733 16 8C16 5.828 15.9907 5.556 15.952 4.70133C15.8213 1.79867 14.2067 0.181333 11.3 0.0493333C10.4453 0.00933333 10.1733 0 8 0ZM7.99995 1.44238C10.136 1.44238 10.3893 1.45038 11.2333 1.48905C13.4026 1.58772 14.4133 2.61572 14.5133 4.76772C14.5506 5.61172 14.5586 5.86372 14.5586 7.99972C14.5586 10.1357 14.5506 10.389 14.5133 11.2317C14.4133 13.3824 13.404 14.413 11.2333 14.5117C10.3893 14.549 10.1373 14.5584 7.99995 14.5584C5.86395 14.5584 5.61062 14.5504 4.76795 14.5117C2.59462 14.4117 1.58795 13.3797 1.48795 11.2317C1.45062 10.389 1.44128 10.1357 1.44128 7.99972C1.44128 5.86372 1.45062 5.61038 1.48795 4.76772C1.58662 2.61438 2.59728 1.58638 4.76795 1.48772C5.61062 1.44905 5.86395 1.44238 7.99995 1.44238ZM3.89197 7.9996C3.89197 5.73027 5.73197 3.8916 7.99997 3.8916C10.268 3.8916 12.108 5.7316 12.108 7.9996C12.108 10.2689 10.268 12.1076 7.99997 12.1076C5.73197 12.1076 3.89197 10.2689 3.89197 7.9996ZM8.00004 10.6663C6.52671 10.6663 5.33337 9.47301 5.33337 7.99967C5.33337 6.52767 6.52671 5.33301 8.00004 5.33301C9.47204 5.33301 10.668 6.52634 10.668 7.99967C10.668 9.47301 9.47204 10.6663 8.00004 10.6663ZM11.3093 3.73067C11.3093 3.2 11.74 2.77067 12.2693 2.77067C12.8013 2.77067 13.2307 3.2 13.2307 3.73067C13.2307 4.26133 12.8 4.69067 12.2693 4.69067C11.7387 4.69067 11.3093 4.26 11.3093 3.73067Z"/>
</svg>
