<svg width="148" height="146" viewBox="0 0 148 146" fill="none" xmlns="http://www.w3.org/2000/svg">
<path d="M74 110.73L56.2906 145.495L56.8052 106.502L24.9289 129.075L43.5496 94.7872L4.8088 99.9969L37.2698 78.269L0.539543 64.9219L39.4044 60.7315L13.0992 31.8854L49.4645 46.1924L39.6105 8.45563L65.1453 37.9825L74 0L82.8547 37.9825L108.39 8.45563L98.5355 46.1924L134.901 31.8854L108.596 60.7315L147.46 64.9219L110.73 78.269L143.191 99.9969L104.45 94.7872L123.071 129.075L91.1948 106.502L91.7094 145.495L74 110.73Z" fill="#EF6D58"/>
<path fill-rule="evenodd" clip-rule="evenodd" d="M64 62.8467C64 60.092 66.2386 57.8589 69 57.8589C71.7614 57.8589 74 60.092 74 62.8467C74 60.092 76.2386 57.8589 79 57.8589C81.7614 57.8589 84 60.092 84 62.8467V62.8587C84 62.9984 84 63.3974 83.924 63.8443H88C89.1046 63.8443 90 64.7375 90 65.8394V67.8346C90 68.9364 89.1046 69.8297 88 69.8297H60C58.8954 69.8297 58 68.9364 58 67.8346V65.8394C58 64.7375 58.8954 63.8443 60 63.8443H64.076C64.0232 63.5184 63.9978 63.1888 64 62.8587V62.8467ZM66.136 63.8443H72V62.8467C72 61.7775 71.4282 60.7896 70.5 60.255C69.5718 59.7204 68.4282 59.7204 67.5 60.255C66.5718 60.7896 66 61.7775 66 62.8467C66 63.0163 66.004 63.3934 66.09 63.7046C66.102 63.7522 66.1174 63.7989 66.136 63.8443ZM81.864 63.8443H76V62.8467C76 61.1939 77.3431 59.854 79 59.854C80.6569 59.854 82 61.1939 82 62.8467C82 63.0163 81.996 63.3934 81.91 63.7046C81.8978 63.7521 81.8824 63.7988 81.864 63.8443ZM88 71.8247V86.7882C88 88.441 86.6569 89.7809 85 89.7809H76V71.8247H88ZM60 86.7882C60 88.441 61.3431 89.7809 63 89.7809H72V71.8247H60V86.7882Z" fill="white"/>
</svg>
